<svg id="Layer_1" enable-background="new 0 0 128 128" height="512" viewBox="0 0 128 128" width="512" xmlns="http://www.w3.org/2000/svg"><g><path d="m104.551 67h6.151c.491 3.642 3.612 6.462 7.387 6.462 4.114 0 7.462-3.348 7.462-7.462s-3.348-7.462-7.462-7.462c-3.774 0-6.896 2.82-7.387 6.462h-6.151c-.027 0-.049.013-.076.015-.23-9.104-3.631-17.429-9.144-23.913l18.186-15.735c1.265.985 2.849 1.577 4.572 1.577 4.114 0 7.462-3.347 7.462-7.462s-3.348-7.462-7.462-7.462-7.462 3.348-7.462 7.462c0 1.67.558 3.208 1.488 4.453l-18.12 15.678c-7.024-7.45-16.972-12.113-27.995-12.113s-20.971 4.664-27.996 12.112l-18.12-15.678c.93-1.245 1.488-2.783 1.488-4.453 0-4.115-3.348-7.462-7.462-7.462s-7.462 3.348-7.462 7.462 3.348 7.462 7.462 7.462c1.723 0 3.307-.593 4.572-1.577l18.186 15.735c-5.513 6.484-8.913 14.81-9.144 23.913-.025-.001-.048-.014-.075-.014h-6.151c-.491-3.642-3.612-6.462-7.387-6.462-4.114 0-7.462 3.348-7.462 7.462s3.348 7.462 7.462 7.462c3.774 0 6.896-2.82 7.387-6.462h6.151c.027 0 .049-.013.076-.015.23 9.104 3.631 17.429 9.144 23.913l-18.186 15.735c-1.265-.985-2.849-1.577-4.572-1.577-4.114 0-7.462 3.347-7.462 7.462s3.348 7.462 7.462 7.462 7.462-3.348 7.462-7.462c0-1.67-.558-3.208-1.488-4.453l18.12-15.678c7.024 7.449 16.973 12.113 27.995 12.113s20.971-4.664 27.996-12.112l18.12 15.678c-.93 1.245-1.488 2.783-1.488 4.453 0 4.115 3.348 7.462 7.462 7.462s7.462-3.348 7.462-7.462-3.348-7.462-7.462-7.462c-1.723 0-3.307.593-4.572 1.577l-18.187-15.736c5.513-6.484 8.913-14.81 9.144-23.913.027.002.049.015.076.015z" fill="#e6e7e8"/><g><circle cx="62" cy="62" fill="#6dc9f7" r="37.5"/><path d="m62 96.5c-20.208 0-36.674-15.986-37.462-36-.02.498-.038.997-.038 1.5 0 20.711 16.789 37.5 37.5 37.5s37.5-16.789 37.5-37.5c0-.503-.018-1.002-.038-1.5-.788 20.014-17.254 36-37.462 36z" fill="#fff"/><g fill="#0089ef"><g><circle cx="114.089" cy="62" r="6.462"/><circle cx="114.089" cy="108.518" r="6.462"/><circle cx="114.089" cy="15.482" r="6.462"/></g><g><circle cx="9.911" cy="62" r="6.462"/><circle cx="9.911" cy="108.518" r="6.462"/><circle cx="9.911" cy="15.482" r="6.462"/></g></g><g><g fill="#fa759e"><path d="m62 85.095-25-13.57 25-13.569 25 13.569z"/><path d="m62 75.57-25-13.57 25-13.57 25 13.57z"/></g><g><path d="m62 66.044-25-13.569 25-13.57 25 13.57z" fill="#fa759e"/><g fill="#3a2c60"><path d="m51.342 27.037c.094 0 .189-.014.284-.042 2.225-.659 4.528-1.105 6.85-1.327.55-.053.952-.541.899-1.091-.052-.549-.516-.951-1.091-.9-2.447.235-4.879.706-7.227 1.4-.529.157-.831.713-.675 1.243.13.435.528.717.96.717z"/><path d="m106.702 63c.491 3.642 3.612 6.462 7.387 6.462 4.115 0 7.463-3.347 7.463-7.462s-3.348-7.462-7.463-7.462c-3.774 0-6.896 2.82-7.387 6.462h-6.227c-.235-9.082-3.641-17.401-9.157-23.886l18.2-15.747c1.265.985 2.849 1.577 4.572 1.577 4.115 0 7.463-3.347 7.463-7.462s-3.348-7.462-7.463-7.462c-4.114 0-7.462 3.348-7.462 7.462 0 1.67.558 3.208 1.488 4.453l-18.134 15.689c-6.98-7.4-16.838-12.061-27.758-12.123-.002 0-.004 0-.006 0-.55 0-.997.444-1 .994-.003.552.442 1.003.994 1.006 20.01.114 36.288 16.487 36.288 36.499 0 20.126-16.374 36.5-36.5 36.5s-36.5-16.374-36.5-36.5c0-14.845 8.867-28.096 22.591-33.757.511-.21.754-.795.544-1.306-.21-.51-.797-.753-1.306-.543-5.174 2.134-9.678 5.305-13.35 9.196l-18.094-15.655c.93-1.245 1.488-2.783 1.488-4.453 0-4.115-3.348-7.462-7.462-7.462s-7.462 3.348-7.462 7.462 3.348 7.462 7.462 7.462c1.723 0 3.307-.593 4.572-1.577l18.165 15.717c-5.577 6.563-8.881 14.932-9.111 23.916h-6.239c-.491-3.642-3.612-6.462-7.387-6.462-4.114 0-7.462 3.348-7.462 7.462s3.348 7.462 7.462 7.462c3.774 0 6.896-2.82 7.387-6.462h6.227c.234 9.098 3.634 17.418 9.144 23.899l-18.186 15.735c-1.265-.985-2.849-1.578-4.572-1.578-4.114 0-7.462 3.348-7.462 7.462s3.348 7.462 7.462 7.462 7.462-3.348 7.462-7.462c0-1.67-.558-3.208-1.488-4.453l18.12-15.677c7.025 7.449 16.973 12.112 27.995 12.112 11.023 0 20.971-4.664 27.996-12.112l18.119 15.678c-.93 1.245-1.488 2.783-1.488 4.453 0 4.115 3.348 7.462 7.462 7.462 4.115 0 7.463-3.348 7.463-7.462s-3.348-7.462-7.463-7.462c-1.723 0-3.307.593-4.572 1.578l-18.186-15.737c5.51-6.481 8.91-14.8 9.143-23.898zm7.387-52.98c3.013 0 5.463 2.45 5.463 5.462s-2.45 5.462-5.463 5.462c-3.012 0-5.462-2.45-5.462-5.462s2.45-5.462 5.462-5.462zm-109.64 5.462c0-3.012 2.45-5.462 5.462-5.462s5.462 2.45 5.462 5.462-2.45 5.462-5.462 5.462-5.462-2.45-5.462-5.462zm5.462 51.98c-3.012 0-5.462-2.45-5.462-5.462s2.45-5.462 5.462-5.462 5.462 2.45 5.462 5.462-2.45 5.462-5.462 5.462zm0 46.518c-3.012 0-5.462-2.45-5.462-5.462s2.45-5.462 5.462-5.462 5.462 2.45 5.462 5.462-2.45 5.462-5.462 5.462zm109.641-5.462c0 3.012-2.45 5.462-5.463 5.462-3.012 0-5.462-2.45-5.462-5.462s2.45-5.462 5.462-5.462 5.463 2.45 5.463 5.462zm-5.463-51.98c3.013 0 5.463 2.45 5.463 5.462s-2.45 5.462-5.463 5.462c-3.012 0-5.462-2.45-5.462-5.462s2.45-5.462 5.462-5.462z"/><path d="m88 52.475c0-.367-.2-.704-.523-.879l-25-13.57c-.297-.161-.656-.161-.953 0l-25 13.57c-.324.175-.524.512-.524.879s.2.704.523.879l7.155 3.884-7.155 3.884c-.323.174-.523.511-.523.878s.201.704.523.879l7.155 3.884-7.155 3.884c-.323.174-.523.512-.523.878s.201.704.523.879l25 13.569c.148.081.313.121.477.121s.328-.041.477-.121l25-13.569c.322-.174.523-.512.523-.879s-.2-.704-.523-.879l-7.155-3.884 7.155-3.884c.322-.174.523-.511.523-.878s-.2-.704-.523-.879l-7.155-3.884 7.155-3.884c.323-.174.523-.512.523-.878zm-3.097 19.05-22.903 12.432-22.903-12.432 6.678-3.625 15.748 8.548c.148.081.313.121.477.121s.328-.041.477-.121l15.748-8.548zm0-9.525-22.903 12.432-22.903-12.432 6.678-3.625 15.749 8.548c.148.081.313.121.477.121s.328-.041.477-.121l15.749-8.548zm-22.903 2.907-22.903-12.432 22.903-12.432 22.903 12.432z"/></g></g></g></g></g></svg>