<svg height="512pt" viewBox="0 0 512 512" width="512pt" xmlns="http://www.w3.org/2000/svg"><path d="m60 301h392v90h-392zm0 0" fill="#47568c"/><path d="m60 121h392v90h-392zm0 0" fill="#47568c"/><path d="m256 121h196v90h-196zm0 0" fill="#2c3b73"/><path d="m256 301h196v90h-196zm0 0" fill="#2c3b73"/><path d="m497 0h-482c-8.402344 0-15 6.597656-15 15v121c0 8.398438 6.597656 15 15 15h482c8.402344 0 15-6.601562 15-15v-121c0-8.402344-6.597656-15-15-15zm0 0" fill="#61729b"/><path d="m497 181h-482c-8.402344 0-15 6.597656-15 15v120c0 8.398438 6.597656 15 15 15h482c8.402344 0 15-6.601562 15-15v-120c0-8.402344-6.597656-15-15-15zm0 0" fill="#61729b"/><path d="m497 361h-482c-8.402344 0-15 6.597656-15 15v121c0 8.398438 6.597656 15 15 15h482c8.402344 0 15-6.601562 15-15v-121c0-8.402344-6.597656-15-15-15zm0 0" fill="#61729b"/><path d="m512 15v121c0 8.398438-6.597656 15-15 15h-241v-151h241c8.402344 0 15 6.597656 15 15zm0 0" fill="#47568c"/><path d="m512 196v120c0 8.398438-6.597656 15-15 15h-241v-150h241c8.402344 0 15 6.597656 15 15zm0 0" fill="#47568c"/><path d="m512 376v121c0 8.398438-6.597656 15-15 15h-241v-151h241c8.402344 0 15 6.597656 15 15zm0 0" fill="#47568c"/><g fill="#25d9f8"><path d="m90 436c0 8.285156-6.714844 15-15 15s-15-6.714844-15-15 6.714844-15 15-15 15 6.714844 15 15zm0 0"/><path d="m150 436c0 8.285156-6.714844 15-15 15s-15-6.714844-15-15 6.714844-15 15-15 15 6.714844 15 15zm0 0"/><path d="m210 436c0 8.285156-6.714844 15-15 15s-15-6.714844-15-15 6.714844-15 15-15 15 6.714844 15 15zm0 0"/><path d="m90 256c0 8.285156-6.714844 15-15 15s-15-6.714844-15-15 6.714844-15 15-15 15 6.714844 15 15zm0 0"/><path d="m150 256c0 8.285156-6.714844 15-15 15s-15-6.714844-15-15 6.714844-15 15-15 15 6.714844 15 15zm0 0"/><path d="m210 256c0 8.285156-6.714844 15-15 15s-15-6.714844-15-15 6.714844-15 15-15 15 6.714844 15 15zm0 0"/><path d="m90 76c0 8.285156-6.714844 15-15 15s-15-6.714844-15-15 6.714844-15 15-15 15 6.714844 15 15zm0 0"/><path d="m150 76c0 8.285156-6.714844 15-15 15s-15-6.714844-15-15 6.714844-15 15-15 15 6.714844 15 15zm0 0"/><path d="m210 76c0 8.285156-6.714844 15-15 15s-15-6.714844-15-15 6.714844-15 15-15 15 6.714844 15 15zm0 0"/></g></svg>